<svg width="60" height="60" viewBox="0 0 60 60" fill="none" xmlns="http://www.w3.org/2000/svg">
<path d="M15 7.5C13.0109 7.5 11.1032 8.29018 9.6967 9.6967C8.29018 11.1032 7.5 13.0109 7.5 15V45C7.5 46.9891 8.29018 48.8968 9.6967 50.3033C11.1032 51.7098 13.0109 52.5 15 52.5H45C46.9891 52.5 48.8968 51.7098 50.3033 50.3033C51.7098 48.8968 52.5 46.9891 52.5 45V15C52.5 13.0109 51.7098 11.1032 50.3033 9.6967C48.8968 8.29018 46.9891 7.5 45 7.5H15ZM33.335 40.1375C35.135 41.5875 36.93 42.3 38.725 42.2825C39.825 42.2825 40.67 42.0825 41.255 41.6775C41.5282 41.5002 41.7504 41.2548 41.8999 40.9655C42.0494 40.6761 42.1209 40.3529 42.1075 40.0275C42.1111 39.6726 42.0369 39.3213 41.89 38.9982C41.7432 38.6751 41.5273 38.3881 41.2575 38.1575C40.67 37.645 39.56 37.1325 37.9275 36.6175C35.9675 36.05 34.4525 35.3175 33.39 34.4175C32.345 33.5175 31.815 32.2625 31.795 30.65C31.795 29.1275 32.455 27.855 33.775 26.8275C35.06 25.8025 36.7 25.2875 38.7 25.2875C41.485 25.2875 43.7225 25.965 45.4075 27.3225L43.4825 30.32C42.7894 29.7809 41.9943 29.388 41.145 29.165C40.3818 28.9097 39.5846 28.7707 38.78 28.7525C37.83 28.7525 37.0675 28.9275 36.4975 29.275C35.93 29.625 35.6475 30.0825 35.6475 30.65C35.6475 31.275 35.995 31.805 36.69 32.245C37.39 32.6675 38.58 33.135 40.265 33.6475C42.3 34.2525 43.75 35.06 44.61 36.0675C45.4725 37.075 45.9025 38.36 45.9025 39.9175C45.9025 41.5125 45.29 42.8875 44.06 44.0425C42.85 45.18 41.09 45.775 38.78 45.83C35.755 45.83 33.225 44.9225 31.19 43.1075L33.335 40.1375ZM19.51 41.7325C20.0975 42.1 20.8025 42.2825 21.6275 42.2825C22.49 42.2825 23.2025 42.035 23.7725 41.54C24.34 41.0275 24.625 40.1375 24.625 38.8725V25.6175H28.3375V39.5875C28.2825 41.75 27.66 43.31 26.4675 44.2625C25.8168 44.8158 25.0583 45.2278 24.24 45.4725C23.4821 45.7034 22.6948 45.8238 21.9025 45.83C20.5275 45.83 19.3075 45.5925 18.245 45.115C17.1075 44.6025 16.155 43.695 15.385 42.3925L17.97 40.275C18.445 40.9175 18.96 41.4025 19.51 41.7325Z" fill="#575756"/>
</svg>
