<svg width="60" height="60" viewBox="0 0 60 60" fill="none" xmlns="http://www.w3.org/2000/svg">
<g clip-path="url(#clip0_213_155)">
<path d="M23.9062 26.7188V17.4675H30.5812C34.23 17.4675 36.3637 19.1813 36.3637 22.1063C36.3637 25.1138 34.0988 26.7188 29.7488 26.7188H23.9062ZM23.9062 40.8263H31.0237C35.4637 40.8263 37.8113 39.0263 37.8113 35.6625C37.8113 32.3438 35.3737 30.6075 30.7387 30.6075H23.9062V40.8263Z" fill="#575756"/>
<path d="M15.0074 0C11.0292 0 7.21389 1.58035 4.40084 4.3934C1.5878 7.20644 0.00744629 11.0218 0.00744629 15V45C0.00744629 48.9782 1.5878 52.7936 4.40084 55.6066C7.21389 58.4196 11.0292 60 15.0074 60H45.0074C48.9857 60 52.801 58.4196 55.614 55.6066C58.4271 52.7936 60.0074 48.9782 60.0074 45V15C60.0074 11.0218 58.4271 7.20644 55.614 4.3934C52.801 1.58035 48.9857 0 45.0074 0L15.0074 0ZM18.9824 45V13.2938H31.7287C37.6799 13.2938 41.2649 16.3275 41.2649 21.2063C41.2649 24.5213 38.8274 27.4875 35.7037 28.0163V28.3913C39.9899 28.83 42.8437 31.8825 42.8437 36.015C42.8437 41.595 38.7787 45 32.0137 45H18.9824Z" fill="#575756"/>
</g>
<defs>
<clipPath id="clip0_213_155">
<rect width="60" height="60" fill="white"/>
</clipPath>
</defs>
</svg>
