<svg width="40" height="40" viewBox="0 0 40 40" fill="none" xmlns="http://www.w3.org/2000/svg">
<path d="M20.5 3C11.3882 3 4 10.5797 4 19.9199C4 27.3964 8.72902 33.7312 15.2848 35.9705C15.3768 35.9905 15.4706 36.0004 15.5647 36C16.1761 36 16.4118 35.5507 16.4118 35.1603C16.4118 34.7551 16.3971 33.6944 16.3897 32.2801C15.8439 32.4081 15.2856 32.4748 14.725 32.479C11.5502 32.479 10.8283 30.0114 10.8283 30.0114C10.077 28.0594 8.99419 27.5364 8.99419 27.5364C7.55781 26.5272 8.98683 26.4978 9.09732 26.4978H9.10469C10.7621 26.6451 11.6312 28.2509 11.6312 28.2509C12.4562 29.6946 13.5612 30.0998 14.5482 30.0998C15.2009 30.0867 15.8434 29.9361 16.4339 29.6578C16.5812 28.5676 17.0085 27.8237 17.4799 27.3964C13.819 26.9692 9.96652 25.5181 9.96652 19.0359C9.96652 17.187 10.6074 15.677 11.6607 14.4984C11.4913 14.0712 10.9241 12.3475 11.8228 10.0199C11.9433 9.99102 12.0672 9.97863 12.1911 9.98303C12.7877 9.98303 14.1357 10.2114 16.3603 11.7583C19.0633 11.002 21.922 11.002 24.625 11.7583C26.8495 10.2114 28.1975 9.98303 28.7942 9.98303C28.9181 9.97863 29.0419 9.99102 29.1625 10.0199C30.0611 12.3475 29.494 14.0712 29.3245 14.4984C30.3779 15.6844 31.0187 17.1944 31.0187 19.0359C31.0187 25.5328 27.1589 26.9618 23.4832 27.3817C24.0725 27.9047 24.6029 28.9359 24.6029 30.5123C24.6029 32.7736 24.5808 34.6004 24.5808 35.1529C24.5808 35.5507 24.8091 36 25.4205 36C25.5195 36.0004 25.6182 35.9905 25.7152 35.9705C32.2783 33.7312 37 27.3891 37 19.9199C37 10.5797 29.6118 3 20.5 3Z" fill="#B07F6B"/>
</svg>
