<svg width="40" height="40" viewBox="0 0 40 40" fill="none" xmlns="http://www.w3.org/2000/svg">
<path d="M20 4C11.1787 4 4 11.1769 4 20C4 28.8231 11.1787 36 20 36C28.8213 36 36 28.8231 36 20C36 11.1769 28.8213 4 20 4ZM32.3769 18.7111C29.2944 18.206 26.1397 18.3648 23.1236 19.1769C22.8036 18.4018 22.4427 17.6498 22.0747 16.896C24.6431 15.4273 26.8883 13.4548 28.6756 11.0969C30.764 13.1224 32.0741 15.8175 32.3769 18.7111ZM27.3422 9.97511C25.706 12.1457 23.6498 13.9649 21.296 15.3244C19.8938 12.7502 18.221 10.333 16.3058 8.11378C18.1622 7.53453 20.129 7.4012 22.0466 7.72461C23.9642 8.04802 25.7785 8.81905 27.3422 9.97511ZM14.5724 8.81956C16.5577 11.0568 18.2825 13.5122 19.7138 16.1387C15.9876 17.8702 11.8229 18.4276 7.77244 17.7369C8.13044 15.8226 8.93202 14.0189 10.1129 12.4703C11.2938 10.9217 12.8211 9.67135 14.5724 8.81956ZM7.55556 20L7.58222 19.4773C8.784 19.6747 9.98756 19.8116 11.1804 19.8116C14.4009 19.7978 17.579 19.0774 20.4907 17.7013C20.8142 18.3644 21.1396 19.024 21.424 19.7049C17.0059 21.2785 13.2058 24.2221 10.5778 28.1067C8.6288 25.8555 7.55591 22.9776 7.55556 20ZM11.8098 29.3458C14.2783 25.6536 17.8719 22.8561 22.0569 21.3689C23.2788 24.6753 24.0513 28.1307 24.3538 31.6427C22.9627 32.1702 21.4877 32.4419 20 32.4444C16.9835 32.4444 14.0709 31.3425 11.8098 29.3458ZM26.0569 30.8604C25.7108 27.4402 24.9386 24.0767 23.7582 20.848C26.5866 20.1125 29.5407 19.9972 32.4178 20.5102C32.3308 22.6353 31.7004 24.7026 30.5868 26.5147C29.4732 28.3267 27.9136 29.8229 26.0569 30.8604Z" fill="#B07F6B"/>
</svg>
