<svg width="60" height="60" viewBox="0 0 60 60" fill="none" xmlns="http://www.w3.org/2000/svg">
<path opacity="0.6" d="M29.1675 5H20.8325C18.6223 5 16.5026 5.87802 14.9397 7.4409C13.3768 9.00378 12.4988 11.1235 12.4988 13.3337C12.4988 15.544 13.3768 17.6637 14.9397 19.2266C16.5026 20.7895 18.6223 21.6675 20.8325 21.6675H29.1675V5Z" fill="#575756"/>
<path opacity="0.4" d="M29.1675 21.6675H20.8325C18.6226 21.6675 16.5032 22.5454 14.9405 24.108C13.3779 25.6707 12.5 27.7901 12.5 30C12.5 32.2099 13.3779 34.3293 14.9405 35.8919C16.5032 37.4546 18.6226 38.3325 20.8325 38.3325H29.1675V21.6675Z" fill="#575756"/>
<path d="M45.8325 30C45.8325 32.2103 44.9545 34.33 43.3916 35.8929C41.8288 37.4557 39.709 38.3338 37.4988 38.3338C35.2885 38.3338 33.1688 37.4557 31.6059 35.8929C30.0431 34.33 29.165 32.2103 29.165 30C29.165 27.7898 30.0431 25.67 31.6059 24.1072C33.1688 22.5443 35.2885 21.6663 37.4988 21.6663C39.709 21.6663 41.8288 22.5443 43.3916 24.1072C44.9545 25.67 45.8325 27.7898 45.8325 30Z" fill="#575756"/>
<path opacity="0.2" d="M20.8324 38.335H29.1674V46.6675C29.167 48.3153 28.6779 49.926 27.7621 51.2959C26.8463 52.6658 25.545 53.7334 24.0225 54.3637C22.5 54.9941 20.8249 55.1589 19.2087 54.8373C17.5926 54.5157 16.1081 53.7222 14.943 52.557C13.7778 51.3918 12.9843 49.9073 12.6627 48.2912C12.3411 46.6751 12.5059 44.9999 13.1362 43.4775C13.7666 41.955 14.8342 40.6536 16.2041 39.7378C17.574 38.8221 19.1846 38.3355 20.8324 38.335Z" fill="#575756"/>
<path opacity="0.8" d="M29.165 5H37.4975C39.7078 5 41.8275 5.87802 43.3904 7.4409C44.9533 9.00378 45.8313 11.1235 45.8313 13.3337C45.8313 15.544 44.9533 17.6637 43.3904 19.2266C41.8275 20.7895 39.7078 21.6675 37.4975 21.6675H29.165V5Z" fill="#575756"/>
</svg>
