<svg width="60" height="60" viewBox="0 0 60 60" fill="none" xmlns="http://www.w3.org/2000/svg">
<path d="M22.4817 37.0406L22.5722 37.0847L22.7334 37.1625C22.9392 37.2605 23.1468 37.3575 23.3564 37.4508L23.4881 37.5094C23.7286 37.6148 23.9704 37.7151 24.2151 37.8117L24.3923 37.8811C24.6182 37.9692 24.8479 38.0545 25.0781 38.1356L25.1643 38.1651C25.417 38.2533 25.672 38.3353 25.9293 38.4155L26.1145 38.4703C26.3761 38.5495 26.6343 38.6437 26.9043 38.6939C44.039 41.8181 49.0157 28.3969 49.0157 28.3969C44.8354 33.8428 37.4156 35.2795 30.3853 33.6801C30.119 33.6201 29.8603 33.5367 29.6006 33.4598L29.4051 33.4008C29.1519 33.3231 28.9 33.2412 28.6495 33.1552L28.5459 33.1176C28.3227 33.0386 28.1006 32.9562 27.8798 32.8706L27.6932 32.7975C27.4517 32.7024 27.2119 32.6027 26.9742 32.4984L26.8303 32.4347C26.627 32.343 26.4248 32.2489 26.2237 32.1525L26.0479 32.0681C25.8904 31.9912 25.7343 31.9092 25.5787 31.8291L25.2656 31.665C25.0764 31.5632 24.889 31.4581 24.7036 31.3495L24.5137 31.2436C24.2672 31.0977 24.0229 30.948 23.7811 30.7945L23.5837 30.6633C23.4081 30.5506 23.2343 30.4351 23.0625 30.3169L22.8947 30.1987C22.7287 30.0816 22.5647 29.963 22.402 29.8425L22.1836 29.677C22.034 29.5633 21.8858 29.4476 21.7392 29.3301L21.5409 29.1708C21.3543 29.0176 21.1696 28.8621 20.9868 28.7044L20.9264 28.6533C20.729 28.4805 20.5346 28.3044 20.3432 28.125L20.1792 27.967C20.0372 27.8325 19.8979 27.6966 19.7606 27.5573L19.5965 27.3933C19.4225 27.2151 19.2514 27.0341 19.0832 26.8505L19.0579 26.8233C18.8806 26.6291 18.707 26.4316 18.5372 26.2308L18.4007 26.0686C18.2742 25.9162 18.1486 25.7616 18.0262 25.6055L17.8889 25.4348C17.7419 25.2449 17.5977 25.0528 17.4562 24.8587C13.5534 19.5347 12.1509 12.1917 15.2704 6.16124L12.5053 9.66843C8.962 14.7605 9.40356 21.3858 12.1097 26.797L12.3079 27.1819L12.435 27.4256L12.5137 27.5658L12.6548 27.8184C12.7387 27.9666 12.8245 28.1137 12.9126 28.2609L13.0603 28.5042C13.1578 28.6617 13.2576 28.8173 13.3603 28.973L13.4878 29.1708C13.6289 29.3808 13.7732 29.5908 13.9218 29.797L13.9345 29.8134L14.0076 29.9123C14.1365 30.09 14.2692 30.2653 14.4032 30.4387L14.5523 30.6281C14.6718 30.7786 14.7942 30.9286 14.9179 31.0777L15.0576 31.2441C15.224 31.4405 15.3937 31.6355 15.5672 31.8262L15.5775 31.837L15.5972 31.8586C15.7659 32.0433 15.9393 32.2233 16.1147 32.4042L16.2806 32.5716C16.4165 32.7084 16.5543 32.843 16.694 32.977L16.8632 33.1378C17.0493 33.3131 17.2373 33.4851 17.4295 33.6539L17.4389 33.6609L17.5373 33.7453C17.7065 33.8916 17.879 34.0373 18.0525 34.1803L18.2657 34.35C18.4073 34.4634 18.5507 34.5755 18.6951 34.6856L18.9243 34.86C19.0837 34.9772 19.244 35.0925 19.4057 35.2055L19.5815 35.3302L19.6298 35.3644C19.7836 35.4703 19.9406 35.5716 20.0976 35.6733L20.3001 35.8083C20.5406 35.9606 20.7853 36.1111 21.0323 36.2564L21.2348 36.3708C21.4167 36.4753 21.599 36.578 21.7842 36.6783L22.0879 36.8358L22.4817 37.0406ZM24.2128 19.793C24.5967 20.3433 25.0218 20.9976 25.5314 21.4401C25.7161 21.6436 25.9092 21.8414 26.1061 22.0369L26.2579 22.1859C26.4497 22.3716 26.6442 22.5539 26.8448 22.7316L26.8692 22.7522L26.8748 22.7583C27.0975 22.9533 27.3272 23.1408 27.5606 23.3255L27.7167 23.4473C27.9511 23.6269 28.1897 23.8031 28.4343 23.9714L28.4554 23.9869L28.7826 24.2025L28.9382 24.3056C29.1131 24.4172 29.2898 24.5269 29.4703 24.6309L29.5453 24.6745C29.7004 24.7641 29.8579 24.8522 30.0154 24.9375L30.1823 25.0251L30.5114 25.1953L30.5611 25.2178C30.787 25.3289 31.0148 25.4358 31.2473 25.5375L31.3987 25.5998C31.5843 25.6786 31.7723 25.7559 31.9607 25.8281L32.2017 25.9162C32.3732 25.98 32.5448 26.0381 32.7182 26.0958L32.9522 26.1708C33.1987 26.2472 33.442 26.3437 33.6989 26.3864C46.9279 28.5787 49.9823 18.3923 49.9823 18.3923C47.2289 22.3575 41.8973 24.2489 36.2076 22.7723C35.9562 22.7063 35.7064 22.6341 35.4586 22.5558L35.2331 22.4831C35.0573 22.4264 34.8825 22.3659 34.709 22.3026L34.4728 22.2145C34.2834 22.1418 34.0953 22.066 33.9084 21.9872L33.7565 21.9225C33.5239 21.8213 33.2938 21.7142 33.0665 21.6014L32.7201 21.4251L32.5204 21.3225C32.3732 21.2428 32.227 21.1594 32.0826 21.0755L31.9781 21.0159C31.7992 20.9115 31.6223 20.8039 31.4475 20.693L31.2876 20.5856L30.9445 20.3587C30.7019 20.1905 30.4636 20.0162 30.2297 19.8361L30.0689 19.7091C27.5784 17.7436 25.6045 15.0558 24.6656 12.0084C23.6822 8.84905 23.894 5.30155 25.5979 2.42296L23.5045 5.3789C20.9423 9.06561 21.0815 14.002 23.0803 17.9016C23.4146 18.5569 23.7929 19.1888 24.2128 19.793ZM38.1567 15.2316L38.4853 15.3455L38.6301 15.3914C38.7862 15.4401 38.9404 15.4973 39.1012 15.5273C46.4057 16.9387 48.3876 11.7787 48.915 11.0194C47.1792 13.5183 44.2626 14.1178 40.6837 13.2492C40.3907 13.1746 40.1016 13.0855 39.8175 12.982C39.4677 12.8577 39.1245 12.7153 38.7895 12.5555C38.1535 12.2495 37.5496 11.881 36.9867 11.4553C33.7842 9.02483 31.7948 4.3903 33.8845 0.61499L32.7539 2.17312C31.2436 4.3964 31.095 7.15733 32.1431 9.61171C33.2484 12.218 35.5134 14.2617 38.1567 15.2316ZM31.1057 45.1383H29.1248C29.0688 45.1404 29.0149 45.1606 28.9712 45.1958C28.9276 45.2311 28.8964 45.2794 28.8825 45.3337L28.1793 48.5869L27.4762 51.84C27.4624 51.8943 27.4314 51.9427 27.3878 51.9779C27.3442 52.0132 27.2904 52.0333 27.2343 52.0355H25.8323C24.4453 52.0355 24.6056 51.0759 24.8897 49.7616L24.8981 49.7217L24.929 49.5558L24.9347 49.5248L24.9979 49.1873L25.0659 48.8259L25.1381 48.458L25.4578 46.8961L25.7779 45.3342C25.784 45.3104 25.7845 45.2854 25.7792 45.2613C25.7739 45.2373 25.7631 45.2148 25.7475 45.1957C25.732 45.1766 25.7122 45.1614 25.6897 45.1514C25.6672 45.1413 25.6427 45.1367 25.6181 45.1378H23.5851C23.5291 45.1398 23.4753 45.1601 23.4318 45.1954C23.3884 45.2308 23.3576 45.2793 23.3442 45.3337L22.9068 47.4075L22.47 49.4817L22.469 49.4845L22.4287 49.6776C21.9253 51.9759 22.0584 54.1683 24.795 54.2372L24.8747 54.2386H29.1698C29.2258 54.2365 29.2796 54.2163 29.3232 54.1811C29.3668 54.1458 29.3979 54.0974 29.4117 54.0431L30.3379 49.6889L31.2642 45.3342C31.2872 45.2264 31.2159 45.1387 31.1057 45.1383ZM9.892 45.1153H7.717C7.66081 45.1175 7.60679 45.1376 7.56285 45.1727C7.51891 45.2078 7.48734 45.256 7.47278 45.3103L7.26653 46.2206L7.06028 47.1309C7.03637 47.2383 7.10622 47.3259 7.21637 47.3259H9.40825C9.46438 47.3239 9.51834 47.3037 9.5621 47.2685C9.60585 47.2333 9.63705 47.1849 9.65106 47.1305L9.85028 46.2206L10.0495 45.3108C10.0725 45.2034 10.0022 45.1153 9.892 45.1153ZM9.26106 47.9484H7.06872C7.01255 47.9507 6.95857 47.9708 6.91464 48.0059C6.87071 48.041 6.83913 48.0892 6.8245 48.1434L6.51653 49.5075L6.20903 50.8711L6.12325 51.262L5.82747 52.6542L5.53215 54.0469C5.50918 54.1542 5.46184 54.3276 5.42668 54.4317C5.42668 54.4317 5.017 55.6505 4.3284 55.6364L4.24215 55.6345L3.64637 55.6237C3.5904 55.6251 3.53587 55.6443 3.49165 55.6787C3.44744 55.713 3.41541 55.7606 3.40028 55.8145L3.17293 56.7703L2.94606 57.7256C2.92028 57.8325 2.98965 57.9206 3.09887 57.9225C3.48934 57.9272 4.36403 57.937 4.89325 57.937C6.61309 57.937 7.52012 56.9841 8.1009 54.2419L8.78106 51.0947L9.41903 48.143C9.442 48.0366 9.37075 47.9484 9.26106 47.9484ZM49.6284 47.2106L49.5375 46.8351L49.4479 46.4508L49.4025 46.2567C49.2243 45.5644 48.7017 45.1655 47.5664 45.1655L45.7992 45.1636L44.1717 45.1612H42.3403C42.2843 45.1633 42.2305 45.1835 42.187 45.2187C42.1435 45.254 42.1125 45.3024 42.0989 45.3567L42.0178 45.7392L41.9221 46.1911L41.8954 46.3181L41.0709 50.1806L40.2881 53.8472C40.2647 53.955 40.2572 54.0872 40.2703 54.1406C40.2834 54.1945 40.4948 54.2386 40.6045 54.2386H42.2564C42.3665 54.2386 42.5057 54.2189 42.5657 54.1945C42.6257 54.1701 42.7143 53.9541 42.7364 53.8467L43.0298 52.3941L43.3237 50.9409L43.3242 50.9386L43.3636 50.745L43.7198 49.0762L44.0343 47.6025C44.0482 47.5483 44.0792 47.5 44.1227 47.4648C44.1662 47.4296 44.2198 47.4093 44.2757 47.407L49.4737 47.4047C49.5839 47.4056 49.6532 47.318 49.6284 47.2106ZM56.3198 43.8169L55.9195 43.8183H54.2559C54.1949 43.8217 54.1354 43.8383 54.0815 43.8668C54.0275 43.8954 53.9804 43.9353 53.9432 43.9837L50.264 49.3734C50.2022 49.4644 50.1314 49.4512 50.107 49.3444L49.8361 48.157C49.8215 48.1026 49.7898 48.0544 49.7458 48.0193C49.7018 47.9842 49.6476 47.9641 49.5914 47.962H47.2265C47.1164 47.962 47.0512 48.0483 47.0812 48.1537L48.1411 51.8667C48.1711 51.9726 48.1734 52.1461 48.1462 52.253L47.6845 54.0497C47.6568 54.1566 47.7243 54.2433 47.8345 54.2433H50.1721C50.2287 54.241 50.2831 54.2211 50.3278 54.1864C50.3725 54.1517 50.4053 54.1039 50.4215 54.0497L50.8837 52.253C50.9203 52.1263 50.9778 52.0067 51.0539 51.8991L57.0267 43.972C57.0932 43.8839 57.0572 43.8122 56.9475 43.8131L56.3198 43.8169ZM37.5295 48.4664V48.4645C37.5214 48.5211 37.4934 48.573 37.4505 48.6109C37.4077 48.6488 37.3528 48.6702 37.2956 48.6712H34.297C34.1929 48.6712 34.1404 48.6009 34.1559 48.5137L34.1587 48.5067L34.1568 48.5076L34.1582 48.4978L34.1718 48.4467C34.4582 47.6855 35.0414 47.1858 36.1378 47.1858C37.3725 47.1853 37.6134 47.7881 37.5295 48.4664ZM36.6497 45.0051C32.8007 45.0051 31.8886 47.3414 31.3767 49.6997C30.8653 52.1034 30.9089 54.3501 34.8923 54.3501H35.3751L35.4951 54.3497H35.5232L36.0014 54.3483H36.0098C37.0617 54.3441 38.1168 54.3361 38.5439 54.3328C38.5995 54.33 38.6528 54.3093 38.6958 54.2739C38.7387 54.2384 38.7691 54.19 38.7825 54.1359L38.9437 53.348L38.9751 53.1947L39.1673 52.2544C39.1734 52.2305 39.1739 52.2056 39.1686 52.1816C39.1633 52.1575 39.1525 52.1351 39.1369 52.116C39.1213 52.0969 39.1015 52.0818 39.079 52.0718C39.0566 52.0618 39.032 52.0572 39.0075 52.0584H35.4267C34.0022 52.0584 33.5793 51.6801 33.7354 50.5673H39.4593L39.4589 50.5678L39.4626 50.5673C39.5079 50.5654 39.5517 50.5504 39.5887 50.5242C39.6257 50.498 39.6543 50.4617 39.6712 50.4197L39.6848 50.37L39.6843 50.3705C40.5342 47.1647 40.2904 45.0056 36.6497 45.0051ZM18.4575 48.4542L18.4031 48.6459L17.9709 50.1783L17.5387 51.7097C17.521 51.7639 17.4872 51.8115 17.4417 51.8459C17.3962 51.8804 17.3412 51.9001 17.2842 51.9023H14.9967C13.2614 51.9023 12.8386 50.5448 13.2614 48.5433C13.6837 46.4958 14.512 45.2231 16.2201 45.0942C18.5545 44.918 19.0214 46.5595 18.4575 48.4542ZM20.0268 51.7847C20.0268 51.7847 21.1054 49.1653 21.3501 47.6531C21.6843 45.6286 20.6704 42.6914 16.7545 42.6914C12.8611 42.6914 11.1698 45.495 10.5248 48.5433C9.87981 51.6136 10.725 54.3056 14.5964 54.2836L17.6507 54.2723L20.505 54.262C20.5615 54.2592 20.6159 54.2391 20.6607 54.2044C20.7054 54.1697 20.7385 54.1221 20.7553 54.068L21.2526 52.1714C21.2803 52.0645 21.2132 51.9773 21.1031 51.9764L20.6264 51.9736L20.1497 51.9708C20.0564 51.9703 20.0029 51.9094 20.0142 51.8292L20.0268 51.7847ZM39.3018 50.0311C39.3019 50.0483 39.2985 50.0654 39.2919 50.0813C39.2854 50.0973 39.2757 50.1118 39.2636 50.124C39.2514 50.1362 39.2369 50.1459 39.221 50.1525C39.2051 50.1591 39.1881 50.1625 39.1708 50.1626C39.1536 50.1626 39.1365 50.1592 39.1206 50.1527C39.1046 50.1461 39.0902 50.1365 39.0779 50.1243C39.0657 50.1121 39.056 50.0977 39.0494 50.0818C39.0428 50.0658 39.0394 50.0488 39.0393 50.0316C39.0393 49.9967 39.053 49.9633 39.0776 49.9387C39.1022 49.914 39.1355 49.9001 39.1704 49.9001C39.2052 49.9 39.2386 49.9138 39.2632 49.9383C39.2879 49.9629 39.3018 49.9963 39.3018 50.0311Z" fill="#575756"/>
</svg>
