<svg width="60" height="60" viewBox="0 0 60 60" fill="none" xmlns="http://www.w3.org/2000/svg">
<g clip-path="url(#clip0_213_147)">
<path d="M26.325 26.825C26.075 26.05 25.85 25.3 25.6 24.525C25.35 23.75 25.125 23.025 24.925 22.3C24.725 21.6 24.55 20.95 24.375 20.35H24.325C24.1 21.425 23.825 22.5 23.475 23.575C23.1 24.775 22.725 26.025 22.325 27.275C21.975 28.55 21.6 29.725 21.225 30.775H27.575C27.425 30.2475 27.225 29.625 27 28.9725C26.775 28.3 26.55 27.575 26.325 26.825ZM49.375 0.75H10.625C4.75 0.75 0 5.5 0 11.375V48.625C0 54.5 4.75 59.25 10.625 59.25H49.375C55.25 59.25 60 54.5 60 48.625V11.375C60 5.5 55.25 0.75 49.375 0.75ZM36.75 42.075H31.5225C31.35 42.1 31.175 41.975 31.125 41.8L29.075 35.85H19.775L17.875 41.725C17.825 41.95 17.625 42.1 17.4 42.0775H12.7C12.425 42.0775 12.35 41.925 12.425 41.6275L20.475 18.45C20.55 18.2 20.625 17.925 20.725 17.625C20.825 17.1 20.875 16.55 20.875 16C20.85 15.875 20.95 15.75 21.075 15.725H27.55C27.75 15.725 27.85 15.8 27.875 15.925L37 41.675C37.075 41.9475 37 42.075 36.75 42.075ZM45.25 41.7C45.25 41.975 45.1525 42.1 44.9275 42.1H40.025C39.775 42.1 39.65 41.9475 39.65 41.7V22.45C39.65 22.2 39.7525 22.1 39.9775 22.1H44.9275C45.1525 22.1 45.25 22.225 45.25 22.45V41.7ZM44.7275 19.125C44.4323 19.4249 44.0763 19.6581 43.6834 19.809C43.2906 19.9599 42.8701 20.025 42.45 20C41.625 20.025 40.825 19.7 40.2225 19.125C39.6497 18.4987 39.3447 17.6732 39.3725 16.825C39.3475 15.975 39.6725 15.175 40.27 14.6C40.875 14.025 41.675 13.725 42.5 13.725C43.4775 13.725 44.2225 14.025 44.775 14.6C45.325 15.2 45.625 16 45.6 16.825C45.625 17.675 45.325 18.5 44.7275 19.125Z" fill="#575756"/>
</g>
<defs>
<clipPath id="clip0_213_147">
<rect width="60" height="60" fill="white"/>
</clipPath>
</defs>
</svg>
