<svg width="75" height="60" viewBox="0 0 75 60" fill="none" xmlns="http://www.w3.org/2000/svg">
<path d="M35.3719 44.4047C35.3016 44.5312 35.3368 44.475 35.3719 44.4047V44.4047ZM64.5669 34.2094C62.2099 34.2086 59.8844 34.7499 57.77 35.7914C57.0786 34.3969 56.3637 33.1781 56.2466 32.2641C56.1059 31.1976 55.9536 30.5648 56.1176 29.2992C56.2817 28.0336 57.02 26.2406 57.0083 26.1117C56.9966 25.9828 56.8442 25.3383 55.3325 25.3266C53.8208 25.3148 52.52 25.6195 52.3688 26.018C52.1018 26.7461 51.8941 27.4946 51.7477 28.2562C51.4782 29.6273 48.7255 34.5258 47.1669 37.0805C46.6512 36.0844 46.2177 35.2055 46.1239 34.5023C45.9833 33.4359 45.8309 32.8031 45.995 31.5375C46.1591 30.2719 46.8973 28.4789 46.8856 28.35C46.8739 28.2211 46.7216 27.5766 45.211 27.5648C43.7005 27.5531 42.3985 27.8578 42.2462 28.2562C42.0938 28.6547 41.9298 29.5922 41.6251 30.4945C41.3204 31.3969 37.6536 39.5531 36.6938 41.6742C36.2016 42.7523 35.7798 43.6195 35.4751 44.2055C35.4282 44.2992 35.393 44.3578 35.3696 44.4047C35.4048 44.3461 35.4282 44.2875 35.4282 44.3109C35.1704 44.8148 35.018 45.0961 35.018 45.0961V45.1078C34.8188 45.4828 34.5962 45.8226 34.4907 45.8226C34.4204 45.8226 34.268 44.8383 34.5259 43.4906C35.0766 40.6547 36.3774 36.2484 36.3657 36.0961C36.354 36.0141 36.6118 35.2523 35.5102 34.8422C34.4438 34.4555 34.0571 35.1 33.9634 35.1C33.8696 35.1 33.7993 35.3344 33.7993 35.3344C33.7993 35.3344 34.9829 30.3656 31.527 30.3656C29.3708 30.3656 26.3708 32.7328 24.8966 34.8773C23.9708 35.3812 21.9669 36.4711 19.8575 37.6312C19.0489 38.0766 18.2169 38.5336 17.4317 38.9672C17.3731 38.9086 17.3262 38.85 17.2677 38.7914C13.0735 34.3148 5.32976 31.1508 5.65788 25.1391C5.77507 22.9476 6.53679 17.1937 20.5489 10.2094C32.0333 4.49062 41.2149 6.06093 42.7958 9.55312C45.0692 14.5336 37.8868 23.8031 25.9606 25.1391C21.4149 25.643 19.0255 23.8851 18.4278 23.2289C17.8067 22.5375 17.713 22.5023 17.4786 22.6312C17.0919 22.8422 17.338 23.4516 17.4786 23.8148C17.8301 24.7406 19.295 26.3812 21.7899 27.2016C23.9813 27.9164 29.311 28.3148 35.7551 25.8187C42.995 23.0297 48.6305 15.2601 46.9782 8.75624C45.2954 2.14687 34.336 -0.0211027 23.9731 3.65858C17.7985 5.84999 11.1212 9.2953 6.31765 13.7836C0.61179 19.1273 -0.301101 23.7797 0.0738989 25.725C1.40866 32.6273 10.9219 37.1273 14.7294 40.4555C14.5419 40.5609 14.3661 40.6547 14.202 40.7484C12.293 41.6976 5.04031 45.4945 3.22507 49.5023C1.17429 54.0492 3.56491 57.307 5.13406 57.7523C10.0313 59.1117 15.0458 56.6625 17.7399 52.643C20.4341 48.6234 20.1071 43.3734 18.8649 40.9828C18.8532 40.9476 18.8298 40.9242 18.818 40.8891C19.3102 40.5961 19.8141 40.3031 20.318 40.0101C21.2895 39.4359 22.2387 38.9086 23.0708 38.4516C22.602 39.7172 22.2622 41.2406 22.0864 43.4437C21.8755 46.0219 22.9419 49.3617 24.3247 50.6742C24.9341 51.2484 25.6712 51.2601 26.1282 51.2601C27.7454 51.2601 28.4719 49.9242 29.2794 48.3305C30.2755 46.3851 31.1544 44.1234 31.1544 44.1234C31.1544 44.1234 30.0528 50.2406 33.0645 50.2406C34.1649 50.2406 35.2665 48.8226 35.7598 48.0961V48.1078C35.7598 48.1078 35.7833 48.0609 35.8419 47.9672C35.9591 47.7914 36.0177 47.6859 36.0177 47.6859V47.6508C36.463 46.8891 37.4356 45.143 38.8993 42.2601C40.7977 38.5336 42.613 33.8812 42.613 33.8812C42.7884 34.9039 43.0311 35.9139 43.3395 36.9047C43.6676 38.018 44.3591 39.2367 44.9098 40.4203C44.4645 41.0297 44.195 41.3812 44.195 41.3812C44.1959 41.3902 44.2 41.3986 44.2067 41.4047C43.8552 41.8734 43.4567 42.3773 43.0466 42.8695C41.5477 44.6508 39.7653 46.6898 39.5309 47.2758C39.2497 47.9672 39.32 48.4828 39.8591 48.8812C40.2575 49.1859 40.9606 49.2328 41.6977 49.1742C43.0454 49.0805 43.9946 48.7523 44.4516 48.5414C45.2942 48.2393 46.0905 47.8212 46.8177 47.2992C48.2825 46.2211 49.1731 44.6742 49.0911 42.6351C49.0442 41.5101 48.6809 40.3851 48.2356 39.3305C48.3645 39.143 48.5052 38.9437 48.6341 38.7445C50.9532 35.3578 52.7462 31.6406 52.7462 31.6406C52.9216 32.6633 53.1643 33.6733 53.4727 34.6641C53.754 35.6133 54.3036 36.6562 54.8075 37.6758C52.629 39.4453 51.2813 41.4961 50.8126 42.8437C49.9454 45.3398 50.6251 46.4648 51.9024 46.7226C52.4766 46.8398 53.2969 46.5703 53.9063 46.3125C54.8113 46.011 55.6646 45.5723 56.4364 45.0117C57.9012 43.9336 59.318 42.4219 59.2243 40.3711C59.1891 39.4453 58.9313 38.5195 58.5915 37.6289C60.4313 36.8555 62.8208 36.4336 65.8677 36.7851C72.3927 37.5469 73.67 41.625 73.4239 43.3242C73.1778 45.0234 71.8067 45.9726 71.3497 46.2539C70.8927 46.5351 70.752 46.6406 70.7872 46.8516C70.8458 47.1562 71.0567 47.1445 71.4434 47.0742C71.9825 46.9805 74.8641 45.6914 74.993 42.5391C75.1805 38.5547 71.3497 34.1719 64.5634 34.207L64.5669 34.2094ZM14.2723 51.1664C12.1173 53.5219 9.09382 54.4125 7.79421 53.6625C6.39968 52.8516 6.95046 49.3851 9.60945 46.875C11.2266 45.3516 13.3114 43.9453 14.6942 43.0781C15.0106 42.8906 15.4676 42.6094 16.0301 42.2695C16.1239 42.2109 16.1708 42.1875 16.1708 42.1875C16.2762 42.1172 16.3934 42.0586 16.5106 41.9883C17.4821 45.5508 16.5458 48.6914 14.2723 51.1641V51.1664ZM30.0176 40.4555C29.2676 42.2953 27.6868 46.9828 26.7259 46.7367C25.9055 46.5258 25.4016 42.9516 26.5618 39.4359C27.1477 37.6664 28.3899 35.557 29.1282 34.7367C30.3106 33.4125 31.6114 32.9906 31.9161 33.518C32.3262 34.2094 30.4864 39.307 30.0176 40.4555ZM43.0255 46.6664C42.7091 46.8305 42.4161 46.9359 42.2755 46.8539C42.17 46.7953 42.4044 46.5726 42.4044 46.5726C42.4044 46.5726 44.0333 44.8266 44.6778 44.0297C45.0528 43.5609 45.4864 43.0101 45.954 42.4008C45.954 42.4594 45.9657 42.518 45.9657 42.5883C45.9505 44.6859 43.936 46.1039 43.0219 46.6664H43.0255ZM53.0544 44.3812C52.82 44.2172 52.8552 43.6664 53.6403 41.9555C53.945 41.2875 54.6469 40.1625 55.8669 39.0844C56.005 39.4925 56.08 39.9193 56.0895 40.35C56.0778 42.9867 54.1911 43.9711 53.0555 44.3812H53.0544Z" fill="#575756"/>
</svg>
