<svg width="60" height="60" viewBox="0 0 60 60" fill="none" xmlns="http://www.w3.org/2000/svg">
<g clip-path="url(#clip0_213_143)">
<path d="M58.865 27.3249L32.6675 1.12993C31.9412 0.406306 30.9577 0 29.9325 0C28.9073 0 27.9238 0.406306 27.1975 1.12993L21.77 6.56743L28.67 13.4674C29.4841 13.1916 30.3592 13.1497 31.1959 13.3464C32.0326 13.5431 32.7973 13.9705 33.4033 14.5801C34.0092 15.1897 34.432 15.957 34.6237 16.7948C34.8154 17.6327 34.7682 18.5075 34.4875 19.3199L41.1325 25.9699C42.1159 25.628 43.1863 25.6302 44.1684 25.9761C45.1504 26.3221 45.9858 26.9913 46.5378 27.8741C47.0897 28.757 47.3255 29.8011 47.2065 30.8355C47.0874 31.8698 46.6206 32.8331 45.8825 33.5674C45.456 33.9947 44.9493 34.3336 44.3917 34.5649C43.834 34.7961 43.2362 34.9152 42.6325 34.9152C42.0288 34.9152 41.431 34.7961 40.8733 34.5649C40.3156 34.3336 39.8091 33.9947 39.3825 33.5674C38.7433 32.9264 38.3067 32.1116 38.1272 31.2243C37.9476 30.337 38.0329 29.4166 38.3725 28.5774L32.15 22.3874V38.6999C32.59 38.9149 33.005 39.2074 33.37 39.5699C34.2262 40.4349 34.7064 41.6029 34.7064 42.8199C34.7064 44.037 34.2262 45.2049 33.37 46.0699C32.9419 46.4985 32.4335 46.8384 31.8739 47.0703C31.3143 47.3023 30.7145 47.4217 30.1087 47.4217C29.503 47.4217 28.9032 47.3023 28.3436 47.0703C27.784 46.8384 27.2756 46.4985 26.8475 46.0699C26.4201 45.644 26.081 45.1379 25.8496 44.5806C25.6183 44.0233 25.4992 43.4258 25.4992 42.8224C25.4992 42.219 25.6183 41.6216 25.8496 41.0643C26.081 40.507 26.4201 40.0009 26.8475 39.5749C27.3025 39.1249 27.815 38.7849 28.36 38.5599V22.0874C27.7988 21.858 27.2886 21.5196 26.8591 21.0917C26.4296 20.6638 26.0892 20.1549 25.8576 19.5946C25.626 19.0343 25.5079 18.4336 25.51 17.8273C25.5121 17.221 25.6345 16.6211 25.87 16.0624L19.09 9.24993L1.125 27.2024C-0.375 28.7149 -0.375 31.1624 1.125 32.6749L27.325 58.8674C27.6837 59.2265 28.1097 59.5113 28.5785 59.7057C29.0474 59.9 29.55 60 30.0575 60C30.565 60 31.0676 59.9 31.5365 59.7057C32.0053 59.5113 32.4313 59.2265 32.79 58.8674L58.865 32.7924C59.2247 32.4338 59.5101 32.0078 59.7049 31.5387C59.8996 31.0695 59.9999 30.5666 59.9999 30.0587C59.9999 29.5508 59.8996 29.0478 59.7049 28.5787C59.5101 28.1096 59.2247 27.6835 58.865 27.3249Z" fill="#575756"/>
</g>
<defs>
<clipPath id="clip0_213_143">
<rect width="60" height="60" fill="white"/>
</clipPath>
</defs>
</svg>
