<svg width="60" height="60" viewBox="0 0 60 60" fill="none" xmlns="http://www.w3.org/2000/svg">
<g clip-path="url(#clip0_213_174)">
<path d="M10.625 0.75C4.75 0.75 0 5.5 0 11.375V48.625C0 54.5 4.75 59.25 10.625 59.25H49.375C55.25 59.25 60 54.5 60 48.625V11.375C60 5.5 55.25 0.75 49.375 0.75H10.625ZM38.9 13.575H43.975C44.1 13.55 44.2 13.65 44.225 13.75V37.6C44.225 38.05 44.25 38.55 44.275 39.1C44.325 39.625 44.35 40.125 44.375 40.55C44.375 40.725 44.3 40.875 44.125 40.95C42.825 41.5 41.45 41.9 40.05 42.15C38.8 42.375 37.5 42.5 36.2 42.5C34.35 42.525 32.5 42.15 30.825 41.375C29.25 40.65 27.95 39.45 27.05 37.975C26.125 36.45 25.675 34.55 25.675 32.275C25.65 30.425 26.125 28.6 27.05 27C28 25.375 29.375 24.025 31.025 23.125C32.775 22.15 34.875 21.675 37.35 21.675C37.475 21.675 37.65 21.675 37.875 21.7C38.1 21.725 38.35 21.725 38.65 21.75V13.85C38.65 13.675 38.725 13.575 38.9 13.575ZM16.575 15.725H21.45C21.6 15.7 21.75 15.8 21.775 15.975C21.8 16 21.8 16.025 21.8 16.05V41.7C21.8 41.975 21.675 42.1 21.45 42.1H16.55C16.325 42.1 16.225 41.975 16.225 41.7V16.05C16.225 15.825 16.35 15.725 16.575 15.725ZM37.15 26.325C36.175 26.325 35.2 26.525 34.325 26.975C33.475 27.4 32.75 28.025 32.2 28.825C31.65 29.625 31.375 30.7 31.375 32C31.35 32.875 31.5 33.75 31.8 34.575C32.05 35.25 32.425 35.85 32.925 36.35C33.4 36.8 33.975 37.15 34.625 37.35C35.3 37.575 36 37.675 36.7 37.675C37.075 37.675 37.425 37.65 37.75 37.625C38.075 37.65 38.375 37.6 38.65 37.5V26.5C38.1587 26.3826 37.6552 26.3239 37.15 26.325Z" fill="#575756"/>
</g>
<defs>
<clipPath id="clip0_213_174">
<rect width="60" height="60" fill="white"/>
</clipPath>
</defs>
</svg>
