<svg width="66" height="42" viewBox="0 0 66 42" fill="none" xmlns="http://www.w3.org/2000/svg">
<path d="M0.474609 33V32.3496H1.26562C1.95703 32.3496 2.48438 32.2441 2.84766 32.0332C3.22266 31.8105 3.49805 31.5117 3.67383 31.1367C3.7793 30.8906 3.83203 30.1523 3.83203 28.9219V13.2422C3.83203 12.0234 3.76758 11.2617 3.63867 10.957C3.50977 10.6523 3.24609 10.3887 2.84766 10.166C2.46094 9.93164 1.93359 9.81445 1.26562 9.81445H0.474609V9.16406H11.1445C13.9922 9.16406 16.2832 9.55078 18.0176 10.3242C20.1387 11.2734 21.7441 12.709 22.834 14.6309C23.9355 16.5527 24.4863 18.7266 24.4863 21.1523C24.4863 22.8281 24.2168 24.375 23.6777 25.793C23.1387 27.1992 22.4414 28.3652 21.5859 29.291C20.7305 30.2051 19.7402 30.9434 18.6152 31.5059C17.502 32.0566 16.1367 32.4844 14.5195 32.7891C13.8047 32.9297 12.6797 33 11.1445 33H0.474609ZM9.5625 10.5176V29.1152C9.5625 30.0996 9.60938 30.7031 9.70312 30.9258C9.79688 31.1484 9.95508 31.3184 10.1777 31.4355C10.4941 31.6113 10.9512 31.6992 11.5488 31.6992C13.5059 31.6992 15 31.0312 16.0312 29.6953C17.4375 27.8906 18.1406 25.0898 18.1406 21.293C18.1406 18.2344 17.6602 15.791 16.6992 13.9629C15.9375 12.5332 14.959 11.5605 13.7637 11.0449C12.9199 10.6816 11.5195 10.5059 9.5625 10.5176ZM23.9309 9.81445V9.16406H36.6047V9.81445H35.8312C35.1281 9.81445 34.5656 9.9375 34.1437 10.1836C33.8508 10.3477 33.6164 10.6289 33.4406 11.0273C33.3117 11.3086 33.2473 12.0469 33.2473 13.2422V24.9141C33.2473 27.1992 33.0187 28.8633 32.5617 29.9062C32.1047 30.9375 31.2902 31.8047 30.1184 32.5078C28.9582 33.1992 27.5578 33.5449 25.9172 33.5449C23.9133 33.5449 22.2902 33.0176 21.048 31.9629C19.8176 30.9082 19.2023 29.7422 19.2023 28.4648C19.2023 27.6445 19.4543 26.9824 19.9582 26.4785C20.4621 25.9629 21.0773 25.7051 21.8039 25.7051C22.5187 25.7051 23.1164 25.9336 23.5969 26.3906C24.0891 26.8477 24.3352 27.4102 24.3352 28.0781C24.3352 28.4062 24.2941 28.6934 24.2121 28.9395C24.1652 29.0566 23.9777 29.3555 23.6496 29.8359C23.3332 30.3047 23.175 30.6387 23.175 30.8379C23.175 31.1426 23.3273 31.4062 23.632 31.6289C24.0773 31.957 24.6574 32.1211 25.3723 32.1211C25.8762 32.1211 26.2922 31.9922 26.6203 31.7344C26.9484 31.4766 27.177 31.0781 27.3059 30.5391C27.4465 29.9883 27.5168 28.4707 27.5168 25.9863V13.2422C27.5168 12.0234 27.4465 11.2617 27.3059 10.957C27.177 10.6523 26.9133 10.3887 26.5148 10.166C26.1281 9.93164 25.6008 9.81445 24.9328 9.81445H23.9309ZM65.2992 9.16406V9.81445C64.8539 9.84961 64.4789 9.97266 64.1742 10.1836C63.8695 10.3945 63.6 10.7168 63.3656 11.1504C63.2953 11.291 62.9262 12.1992 62.2582 13.875L54.7875 33.5449H54.102L48.1957 18.1816L41.6918 33.5449H41.0414L33.2016 14.0859C32.4047 12.1289 31.848 10.9453 31.5316 10.5352C31.2152 10.125 30.682 9.88477 29.932 9.81445V9.16406H40.268V9.81445C39.4359 9.83789 38.8793 9.9668 38.598 10.2012C38.3285 10.4238 38.1938 10.7051 38.1938 11.0449C38.1938 11.4902 38.4809 12.4336 39.0551 13.875L43.7309 25.4414L47.475 16.4062L46.4906 13.875C45.9516 12.4922 45.5355 11.5723 45.2426 11.1152C44.9496 10.6465 44.6098 10.3125 44.223 10.1133C43.848 9.91406 43.2914 9.81445 42.5531 9.81445V9.16406H54.102V9.81445C53.2934 9.82617 52.7133 9.89062 52.3617 10.0078C52.1156 10.0898 51.9223 10.2305 51.7816 10.4297C51.641 10.6172 51.5707 10.834 51.5707 11.0801C51.5707 11.3496 51.8344 12.1758 52.3617 13.5586L56.7035 24.8438L60.5883 14.6309C60.9984 13.5762 61.2504 12.8555 61.3441 12.4688C61.4379 12.082 61.4848 11.7246 61.4848 11.3965C61.4848 10.916 61.3207 10.541 60.9926 10.2715C60.6645 9.99023 60.0375 9.83789 59.1117 9.81445V9.16406H65.2992Z" fill="#32368A"/>
</svg>
