<svg width="40" height="40" viewBox="0 0 40 40" fill="none" xmlns="http://www.w3.org/2000/svg">
<g clip-path="url(#clip0_1883_739)">
<path d="M18.3015 2.73175C19.0841 1.47312 20.9159 1.47312 21.6985 2.73175L26.2713 10.0865C26.5467 10.5294 26.9841 10.8472 27.4903 10.9722L35.8982 13.0485C37.3371 13.4038 37.9031 15.146 36.9479 16.2792L31.3662 22.901C31.0301 23.2997 30.8631 23.8139 30.9006 24.334L31.5241 32.972C31.6308 34.4502 30.1488 35.5269 28.7759 34.9686L20.7534 31.7064C20.2703 31.5099 19.7297 31.5099 19.2466 31.7064L11.2241 34.9686C9.85116 35.5269 8.36918 34.4502 8.47589 32.972L9.0994 24.334C9.13695 23.8139 8.96987 23.2997 8.63379 22.901L3.05206 16.2792C2.09686 15.146 2.66292 13.4038 4.10177 13.0485L12.5097 10.9722C13.0159 10.8472 13.4533 10.5294 13.7287 10.0865L18.3015 2.73175Z" fill="#EFCE46"/>
<circle cx="15.1114" cy="18.8173" r="3.30497" transform="rotate(15 15.1114 18.8173)" fill="white"/>
<circle cx="14.6362" cy="18.2525" r="1.73946" transform="rotate(15 14.6362 18.2525)" fill="#32368A"/>
<circle cx="24.1788" cy="17.7977" r="3.30497" transform="rotate(15 24.1788 17.7977)" fill="white"/>
<circle cx="23.7026" cy="17.2339" r="1.73946" transform="rotate(15 23.7026 17.2339)" fill="#32368A"/>
<path d="M18.9844 24.4482C18.9844 24.4482 20.2843 25.1847 21.5104 24.7607C22.7366 24.3368 23.0489 22.9918 23.0489 22.9918" stroke="#32368A" stroke-linecap="round"/>
</g>
<defs>
<clipPath id="clip0_1883_739">
<rect width="40" height="40" fill="white"/>
</clipPath>
</defs>
</svg>
