<svg width="40" height="40" viewBox="0 0 40 40" fill="none" xmlns="http://www.w3.org/2000/svg">
<g clip-path="url(#clip0_1680_2592)">
<path d="M18.3015 4.73175C19.0841 3.47312 20.9159 3.47312 21.6985 4.73175L26.2713 12.0865C26.5467 12.5294 26.9841 12.8472 27.4903 12.9722L35.8982 15.0485C37.3371 15.4038 37.9031 17.146 36.9479 18.2792L31.3662 24.901C31.0301 25.2997 30.8631 25.8139 30.9006 26.334L31.5241 34.972C31.6308 36.4502 30.1488 37.5269 28.7759 36.9686L20.7534 33.7064C20.2703 33.5099 19.7297 33.5099 19.2466 33.7064L11.2241 36.9686C9.85116 37.5269 8.36918 36.4502 8.47589 34.972L9.0994 26.334C9.13695 25.8139 8.96987 25.2997 8.63379 24.901L3.05206 18.2792C2.09686 17.146 2.66292 15.4038 4.10177 15.0485L12.5097 12.9722C13.0159 12.8472 13.4533 12.5294 13.7287 12.0865L18.3015 4.73175Z" fill="#EFCE46"/>
<circle cx="16" cy="20" r="3" fill="white"/>
<circle cx="15.5" cy="19.5" r="1.5" fill="#32368A"/>
<circle cx="24" cy="20" r="3" fill="white"/>
<circle cx="23.5" cy="19.5" r="1.5" fill="#32368A"/>
<path d="M13 26.5C13 26.5 15.5 29.5 20 29.5C24.5 29.5 27 26.5 27 26.5" stroke="#32368A" stroke-linecap="round"/>
</g>
<defs>
<clipPath id="clip0_1680_2592">
<rect width="40" height="40" fill="white"/>
</clipPath>
</defs>
</svg>
